<svg xmlns="http://www.w3.org/2000/svg" xmlns:xlink="http://www.w3.org/1999/xlink" version="1.1" x="0px" y="0px" viewBox="0 0 24 30" enable-background="new 0 0 24 24" xml:space="preserve"><g><path d="M45.468,88.713c-1.123,0-2.246-0.004-3.368-0.014c-1.869-0.016-2.858-1.024-2.86-2.917c-0.008-5.116-0.009-10.231,0-15.348   c0-0.276,0.225-0.499,0.5-0.499h0.001c0.276,0,0.499,0.225,0.499,0.501c-0.009,5.114-0.008,10.229,0,15.344   c0.002,1.352,0.543,1.907,1.868,1.919c2.347,0.021,4.692,0.014,7.035,0.003c1.415-0.008,1.918-0.52,1.923-1.956   c0.007-1.786,0.006-3.572,0.004-5.357l-0.001-2.207l0.002-2.259c0.001-1.839,0.003-3.678-0.006-5.517   c-0.007-1.306-0.545-1.872-1.8-1.892c-2.249-0.037-4.583-0.038-7.133-0.003c-0.261,0.004-0.403,0.003-0.606,0.001l-0.49-0.001   c-0.276,0-0.5-0.224-0.5-0.5s0.224-0.5,0.5-0.5l0.495,0.001c0.197,0.001,0.334,0.002,0.588-0.001   c2.562-0.035,4.904-0.034,7.162,0.003c1.786,0.028,2.775,1.054,2.784,2.887c0.009,1.841,0.007,3.682,0.006,5.522l-0.002,2.258   l0.001,2.206c0.002,1.787,0.003,3.575-0.004,5.362c-0.007,1.977-0.961,2.942-2.917,2.952   C47.921,88.708,46.695,88.713,45.468,88.713z M50.132,87.268h-1.943c-0.276,0-0.5-0.224-0.5-0.5v-1.3c0-0.276,0.224-0.5,0.5-0.5   h1.943c0.276,0,0.5,0.224,0.5,0.5v1.3C50.632,87.044,50.409,87.268,50.132,87.268z M48.689,86.268h0.943v-0.3h-0.943V86.268z    M46.729,87.268h-1.943c-0.276,0-0.5-0.224-0.5-0.5v-1.3c0-0.276,0.224-0.5,0.5-0.5h1.943c0.276,0,0.5,0.224,0.5,0.5v1.3   C47.229,87.044,47.005,87.268,46.729,87.268z M45.285,86.268h0.943v-0.3h-0.943V86.268z M43.175,87.268h-1.943   c-0.276,0-0.5-0.224-0.5-0.5v-1.3c0-0.276,0.224-0.5,0.5-0.5h1.943c0.276,0,0.5,0.224,0.5,0.5v1.3   C43.675,87.044,43.451,87.268,43.175,87.268z M41.732,86.268h0.943v-0.3h-0.943V86.268z M50.144,84.08h-1.997   c-0.276,0-0.5-0.224-0.5-0.5v-1.254c0-0.276,0.224-0.5,0.5-0.5h1.997c0.276,0,0.5,0.224,0.5,0.5v1.254   C50.644,83.857,50.42,84.08,50.144,84.08z M48.647,83.08h0.997v-0.254h-0.997V83.08z M46.741,84.08h-1.997   c-0.276,0-0.5-0.224-0.5-0.5v-1.254c0-0.276,0.224-0.5,0.5-0.5h1.997c0.276,0,0.5,0.224,0.5,0.5v1.254   C47.241,83.857,47.017,84.08,46.741,84.08z M45.243,83.08h0.997v-0.254h-0.997V83.08z M43.186,84.08H41.19   c-0.276,0-0.5-0.224-0.5-0.5v-1.254c0-0.276,0.224-0.5,0.5-0.5h1.996c0.276,0,0.5,0.224,0.5,0.5v1.254   C43.686,83.857,43.462,84.08,43.186,84.08z M41.69,83.08h0.996v-0.254H41.69V83.08z M50.151,80.981h-1.998   c-0.276,0-0.5-0.224-0.5-0.5v-1.255c0-0.276,0.224-0.5,0.5-0.5h1.998c0.276,0,0.5,0.224,0.5,0.5v1.255   C50.651,80.757,50.427,80.981,50.151,80.981z M48.653,79.981h0.998v-0.255h-0.998V79.981z M46.747,80.981h-1.998   c-0.276,0-0.5-0.224-0.5-0.5v-1.255c0-0.276,0.224-0.5,0.5-0.5h1.998c0.276,0,0.5,0.224,0.5,0.5v1.255   C47.247,80.757,47.024,80.981,46.747,80.981z M45.249,79.981h0.998v-0.255h-0.998V79.981z M43.194,80.981h-1.999   c-0.276,0-0.5-0.224-0.5-0.5v-1.255c0-0.276,0.224-0.5,0.5-0.5h1.999c0.276,0,0.5,0.224,0.5,0.5v1.255   C43.694,80.757,43.47,80.981,43.194,80.981z M41.695,79.981h0.999v-0.255h-0.999V79.981z M49.136,78.289   c-0.023,0-0.049-0.001-0.073-0.001c-0.742-0.018-1.483-0.012-2.224-0.006l-1.124,0.006l-1.191-0.002   c-0.791-0.004-1.584-0.006-2.373,0.002c-0.475,0.006-0.859-0.126-1.119-0.385c-0.268-0.267-0.396-0.641-0.392-1.146   c0.017-2.097,0.02-4.194,0-6.291c-0.005-0.518,0.123-0.9,0.393-1.17c0.267-0.268,0.647-0.398,1.164-0.398c0.007,0,0.015,0,0.022,0   c2.306,0.016,4.614,0.012,6.923,0.001c0.004,0,0.009,0,0.014,0c0.516,0,0.896,0.131,1.165,0.402   c0.271,0.272,0.399,0.659,0.394,1.18c-0.022,2.095-0.022,4.175,0,6.183l0,0c0.006,0.547-0.129,0.948-0.411,1.228   C50.033,78.158,49.65,78.289,49.136,78.289z M47.955,77.277c0.377,0,0.754,0.003,1.132,0.012c0.246,0.015,0.437-0.032,0.513-0.108   c0.076-0.075,0.117-0.254,0.114-0.504l0,0c-0.022-2.016-0.022-4.103,0-6.206c0.003-0.229-0.034-0.394-0.104-0.464   c-0.068-0.069-0.229-0.106-0.455-0.106c-0.003,0-0.006,0-0.01,0c-2.311,0.011-4.622,0.014-6.935-0.001   c-0.216,0.021-0.401,0.035-0.471,0.104c-0.067,0.067-0.103,0.229-0.101,0.455c0.02,2.103,0.017,4.206,0,6.309   c-0.002,0.213,0.033,0.365,0.098,0.43c0.062,0.063,0.219,0.088,0.404,0.093c0.795-0.008,1.592-0.006,2.385-0.002l1.188,0.002   l1.116-0.006C47.206,77.28,47.58,77.277,47.955,77.277z"/><path d="M39.734,71.117c-0.276,0-0.5-0.224-0.5-0.5v-5.26c0-0.276,0.224-0.5,0.5-0.5h1.302c0.276,0,0.5,0.224,0.5,0.5v2.655   c0,0.276-0.224,0.5-0.5,0.5s-0.5-0.224-0.5-0.5v-2.155h-0.302v4.76C40.234,70.894,40.01,71.117,39.734,71.117z"/></g><g><path d="M17.718,23.88c-0.172,0-0.345-0.006-0.521-0.017c-0.972-0.059-2.39-0.271-3.626-0.948   C7.846,19.786,3.707,15.271,1.269,9.496C0.193,6.945,0.357,4.55,1.745,2.569c0.693-0.988,1.811-1.724,2.59-2.189   c0.949-0.563,1.799-0.205,2.339,1.005c0.546,1.224,1.102,2.293,1.698,3.269c1.209,1.979,0.941,3.242-0.953,4.502   C7.166,9.323,6.902,9.475,6.59,9.653l-0.139,0.08c1.328,3.951,3.776,6.617,7.47,8.132c0.079-0.104,0.156-0.206,0.232-0.308   c0.329-0.438,0.64-0.854,1.013-1.233c1.149-1.167,2.156-1.275,3.617-0.307c1.085,0.721,2.23,1.402,3.338,2.061l0.439,0.262   c0.547,0.326,1.341,1.087,0.517,2.521C21.943,22.836,20.091,23.879,17.718,23.88z M5.18,1.119c-0.087,0-0.202,0.041-0.333,0.119   c-0.7,0.419-1.7,1.073-2.284,1.905c-1.49,2.128-1.025,4.418-0.372,5.964c2.348,5.562,6.338,9.912,11.861,12.931   c0.838,0.459,1.977,0.752,3.206,0.827c2.232,0.139,3.921-0.707,4.951-2.502c0.384-0.669,0.24-0.925-0.161-1.164l-0.438-0.262   c-1.118-0.665-2.274-1.353-3.38-2.086c-0.484-0.321-0.859-0.471-1.183-0.471c-0.229,0-0.6,0.066-1.169,0.645   c-0.326,0.332-0.617,0.721-0.926,1.132c-0.152,0.203-0.309,0.411-0.476,0.622c-0.135,0.171-0.363,0.235-0.57,0.156   c-4.31-1.65-7.101-4.688-8.534-9.284C5.303,9.43,5.396,9.19,5.597,9.072l0.496-0.287C6.384,8.619,6.63,8.48,6.864,8.323   c1.456-0.969,1.59-1.615,0.654-3.148C6.899,4.162,6.324,3.056,5.759,1.793C5.623,1.485,5.411,1.119,5.18,1.119z"/></g></svg>